<svg width="25" height="25" viewBox="0 0 25 25" fill="none" xmlns="http://www.w3.org/2000/svg">
<path fill-rule="evenodd" clip-rule="evenodd" d="M10.4167 2.20833C8.75981 2.20833 7.41666 3.55147 7.41666 5.20833V5.20863C6.21302 5.21147 5.56834 5.24153 5.09256 5.55943C4.86508 5.71143 4.66977 5.90674 4.51777 6.13422C4.16666 6.65969 4.16666 7.39118 4.16666 8.85416V18.75C4.16666 20.7142 4.16666 21.6963 4.77686 22.3065C5.38705 22.9167 6.36915 22.9167 8.33333 22.9167H16.6667C18.6308 22.9167 19.6129 22.9167 20.2231 22.3065C20.8333 21.6963 20.8333 20.7142 20.8333 18.75V8.85416C20.8333 7.39118 20.8333 6.65969 20.4822 6.13422C20.3302 5.90674 20.1349 5.71143 19.9074 5.55943C19.4317 5.24153 18.787 5.21147 17.5833 5.20863V5.20833C17.5833 3.55147 16.2402 2.20833 14.5833 2.20833H10.4167ZM10.4583 5.20833C10.4583 4.65604 10.906 4.20833 11.4583 4.20833H13.5417C14.0939 4.20833 14.5417 4.65604 14.5417 5.20833C14.5417 5.76061 14.0939 6.20833 13.5417 6.20833H11.4583C10.906 6.20833 10.4583 5.76061 10.4583 5.20833ZM9.375 11.5C8.82271 11.5 8.375 11.9477 8.375 12.5C8.375 13.0523 8.82271 13.5 9.375 13.5H15.625C16.1773 13.5 16.625 13.0523 16.625 12.5C16.625 11.9477 16.1773 11.5 15.625 11.5H9.375ZM9.375 15.6667C8.82271 15.6667 8.375 16.1144 8.375 16.6667C8.375 17.2189 8.82271 17.6667 9.375 17.6667H13.5417C14.0939 17.6667 14.5417 17.2189 14.5417 16.6667C14.5417 16.1144 14.0939 15.6667 13.5417 15.6667H9.375Z" fill="white"/>
</svg>
