<?xml version="1.0" standalone="no"?>
<!DOCTYPE svg PUBLIC "-//W3C//DTD SVG 20010904//EN"
 "http://www.w3.org/TR/2001/REC-SVG-20010904/DTD/svg10.dtd">
<svg version="1.0" xmlns="http://www.w3.org/2000/svg"
 width="507.000000pt" height="512.000000pt" viewBox="0 0 507.000000 512.000000"
 preserveAspectRatio="xMidYMid meet">

<g transform="translate(0.000000,512.000000) scale(0.100000,-0.100000)"
fill="#000000" stroke="none">
<path d="M2745 4660 c-49 -10 -305 -13 -358 -4 -26 4 -53 0 -85 -12 -26 -10
-49 -19 -52 -19 -3 0 -14 -6 -25 -12 -11 -6 -51 -16 -90 -22 -38 -7 -113 -25
-165 -42 -52 -16 -102 -29 -112 -29 -28 0 -141 -41 -160 -58 -10 -8 -18 -21
-18 -29 0 -7 -6 -13 -12 -13 -16 -1 -131 -158 -181 -247 -118 -213 -122 -232
-132 -604 -6 -245 2 -359 32 -448 12 -35 12 -46 3 -49 -7 -3 -21 -13 -32 -24
-17 -17 -19 -29 -14 -66 3 -25 10 -50 15 -56 10 -13 9 -46 -2 -64 -5 -6 -5
-29 -1 -49 4 -21 7 -47 6 -58 0 -10 3 -24 8 -30 5 -6 8 -74 6 -151 -2 -76 0
-161 5 -189 4 -27 10 -72 14 -100 15 -135 29 -203 51 -252 14 -29 22 -57 19
-62 -2 -5 2 -11 10 -15 8 -3 15 -10 15 -15 0 -6 14 -30 30 -54 17 -25 30 -50
30 -56 0 -6 7 -11 16 -11 11 0 14 -6 9 -22 -6 -17 -4 -20 10 -14 12 4 18 0 22
-14 3 -11 9 -18 13 -15 7 5 34 -52 32 -66 -1 -4 12 -12 29 -19 18 -8 28 -18
25 -26 -7 -19 3 -44 18 -44 17 0 37 -190 27 -256 -5 -34 -17 -64 -37 -90 -40
-50 -51 -69 -36 -60 19 11 14 -9 -8 -37 -31 -39 -25 -68 23 -115 23 -23 48
-42 55 -42 7 0 12 -4 12 -10 0 -5 7 -10 15 -10 8 0 15 -3 15 -7 0 -13 60 -43
83 -42 19 1 18 3 -8 14 -16 8 -24 14 -17 15 10 0 9 7 -3 30 -16 32 -32 42 -21
14 5 -14 1 -16 -26 -10 -42 8 -70 27 -88 60 -10 20 -11 29 -3 34 6 4 15 19 18
35 4 15 11 25 15 22 12 -7 8 -48 -4 -57 -6 -4 -7 -11 -2 -15 5 -4 13 1 20 11
6 10 23 32 38 47 24 25 26 32 17 58 -7 20 -7 41 0 66 5 20 8 42 5 50 -3 7 -1
16 5 20 6 3 11 32 11 63 0 36 3 52 9 43 5 -7 13 -11 19 -7 5 3 17 -5 26 -19 9
-14 23 -25 31 -25 8 0 15 -5 15 -11 0 -6 9 -9 20 -6 10 3 24 -1 31 -9 6 -8 19
-14 29 -14 10 0 23 -7 30 -15 7 -9 19 -14 27 -11 7 3 13 2 13 -3 0 -4 12 -14
28 -22 41 -20 355 -22 401 -2 18 8 48 17 65 19 46 7 80 12 86 14 3 1 10 3 15
4 12 1 83 34 105 47 8 5 34 19 58 31 23 12 42 25 42 29 0 4 9 5 20 2 13 -3 27
2 38 14 26 30 56 43 73 32 25 -16 30 -10 13 17 -14 21 -15 25 -3 24 27 -4 37
0 42 20 3 11 12 20 20 20 10 0 13 7 10 21 -4 14 -1 20 8 19 31 -5 40 2 54 37
9 21 31 49 49 61 21 15 33 29 29 38 -3 8 1 14 11 14 9 0 16 7 16 16 0 11 5 14
16 10 12 -5 15 -2 10 10 -4 11 1 22 14 31 11 8 20 24 20 37 0 13 13 42 30 64
17 23 30 51 30 63 0 22 41 151 51 159 4 3 12 46 19 95 6 50 18 124 25 165 21
118 26 575 6 554 -5 -5 -13 -70 -16 -144 -4 -74 -11 -153 -17 -175 -11 -39
-12 -111 -4 -230 3 -45 0 -68 -14 -91 -9 -17 -20 -51 -24 -76 -8 -54 -20 -68
-57 -68 -5 0 -8 -4 -4 -9 3 -5 1 -12 -5 -16 -6 -4 -10 5 -10 20 0 19 4 26 13
22 11 -4 14 8 13 54 -1 32 2 59 6 59 4 0 8 -6 8 -12 0 -9 4 -8 10 2 15 23 12
40 -6 40 -12 0 -15 6 -9 23 24 78 25 109 5 134 -16 20 -20 22 -20 9 0 -13 -5
-16 -19 -11 -15 4 -21 0 -25 -22 -4 -16 -18 -42 -31 -57 -14 -16 -25 -37 -25
-47 0 -10 -4 -20 -9 -23 -5 -3 -7 -15 -4 -26 3 -11 1 -26 -5 -33 -5 -6 -8 -20
-7 -29 2 -12 -3 -18 -17 -18 -11 0 -22 -8 -25 -20 -3 -11 -14 -20 -24 -20 -14
0 -19 -7 -19 -30 0 -16 -6 -33 -13 -37 -14 -8 -31 -42 -29 -55 3 -11 -3 -10
-32 3 -18 9 -28 23 -34 53 -9 45 0 105 17 116 30 18 45 177 20 203 -8 8 -23
27 -33 41 -10 14 -25 26 -32 26 -7 0 -22 12 -33 26 -12 16 -21 21 -21 13 -1
-9 -6 -7 -16 6 -12 16 -16 17 -23 6 -8 -12 -14 -12 -40 -1 -17 7 -42 10 -56 8
-14 -3 -25 -1 -25 4 0 6 -6 8 -14 5 -7 -3 -23 1 -34 9 -11 8 -27 11 -35 8 -8
-3 -17 1 -20 9 -3 9 -14 13 -30 10 -29 -6 -46 13 -20 21 10 3 23 17 30 31 11
24 9 27 -14 36 -31 12 -137 -5 -173 -28 -14 -10 -55 -18 -97 -21 -69 -4 -73
-3 -82 19 -5 13 -21 37 -36 53 -25 27 -29 28 -40 13 -7 -9 -18 -17 -24 -17 -7
0 -9 -5 -5 -11 11 -19 -40 -5 -59 15 -17 19 -17 19 -14 -3 2 -12 11 -31 20
-41 9 -11 12 -22 7 -25 -10 -6 -50 42 -50 61 0 8 -6 11 -16 7 -9 -3 -19 0 -24
7 -5 7 -10 -2 -14 -25 -5 -24 -3 -44 6 -58 20 -31 11 -55 -20 -59 -15 -2 -26
-9 -24 -15 3 -19 -19 -16 -34 5 -10 14 -15 15 -25 5 -7 -7 -22 -13 -34 -13
-11 0 -31 -7 -43 -16 -12 -8 -22 -10 -22 -5 0 6 -4 11 -10 11 -5 0 -10 -7 -10
-15 0 -8 -6 -15 -14 -15 -8 0 -17 -6 -19 -12 -4 -10 -7 -10 -14 0 -7 9 -18 6
-46 -15 -20 -16 -36 -33 -37 -40 0 -7 -7 -16 -15 -21 -9 -4 -18 -26 -21 -48
-10 -68 -22 -88 -59 -100 -28 -9 -35 -8 -35 2 0 8 7 14 15 14 21 0 0 43 -28
55 -25 12 -43 75 -21 75 22 0 28 22 9 36 -10 7 -22 11 -26 8 -17 -10 -9 5 13
26 23 22 22 28 -8 33 -10 1 -24 6 -30 10 -14 8 -29 89 -25 137 2 38 -16 83
-43 103 -11 9 -13 16 -6 27 8 13 10 12 10 -2 0 -24 16 -23 23 2 3 10 -1 24 -9
31 -8 6 -14 8 -14 3 0 -5 -4 -3 -9 4 -4 8 -6 30 -4 50 2 20 6 62 7 92 4 65 14
127 26 155 4 11 14 35 21 53 9 25 17 32 31 29 10 -3 22 2 27 11 11 20 12 19
32 -38 12 -35 25 -49 58 -68 56 -31 138 -37 166 -11 11 10 42 20 69 24 49 5
75 15 43 15 -22 0 -22 16 1 22 24 7 42 -1 42 -18 0 -8 7 -14 16 -14 12 0 15 6
10 26 -6 22 -4 24 11 15 12 -6 25 -6 37 1 9 5 20 8 23 5 2 -3 -5 -8 -16 -12
-12 -3 -21 -11 -21 -16 0 -6 9 -7 20 -4 11 4 20 2 20 -4 0 -6 -9 -11 -20 -11
-11 0 -20 -4 -20 -9 0 -14 -100 -43 -177 -50 -105 -10 -104 -25 2 -17 49 3 92
10 95 14 3 4 10 7 15 8 18 1 69 15 122 34 38 14 53 16 56 7 3 -9 9 -9 26 1 17
10 25 10 42 0 17 -11 22 -10 35 7 9 11 19 19 24 18 4 -1 14 29 21 67 16 92 2
136 -61 193 -25 23 -49 50 -53 60 -3 9 -11 17 -17 17 -5 0 -10 9 -10 20 0 30
-22 70 -38 70 -7 0 -27 9 -43 21 -16 11 -34 17 -40 13 -7 -4 -9 -3 -6 3 4 5
-11 16 -33 23 -22 7 -37 17 -34 21 3 5 -5 9 -17 9 -12 0 -28 8 -35 18 -12 14
-15 15 -23 3 -8 -12 -12 -12 -25 -2 -19 16 -119 18 -124 2 -2 -6 -10 -11 -17
-11 -17 0 -71 -28 -65 -34 5 -5 -44 -46 -55 -46 -4 0 -4 14 0 30 5 22 3 30 -7
30 -17 0 -17 85 0 102 6 6 12 16 12 22 0 5 -7 1 -15 -10 -24 -31 -17 0 11 49
14 26 54 75 88 111 35 35 66 72 70 81 3 9 11 13 17 9 7 -4 9 -3 5 4 -3 6 13
26 36 44 59 47 189 128 205 128 7 0 13 5 13 10 0 6 11 10 25 10 14 0 25 4 25
9 0 19 228 76 340 86 82 7 246 -7 354 -32 76 -17 176 -58 176 -72 0 -5 36 -30
79 -55 44 -25 106 -68 138 -94 69 -57 162 -169 194 -232 12 -25 28 -52 35 -60
13 -15 45 -101 69 -180 7 -25 18 -97 24 -160 7 -63 13 -133 16 -154 3 -29 1
-36 -7 -25 -7 10 -8 5 -4 -20 3 -18 6 -63 6 -99 0 -36 3 -63 6 -60 3 3 5 21 5
39 0 19 10 77 21 129 19 85 20 114 14 270 -4 96 -11 177 -15 180 -11 7 -23 40
-27 74 -4 28 -20 88 -50 185 -8 25 -14 58 -15 75 -1 64 -29 104 -214 305 -109
120 -222 231 -234 231 -7 0 -12 -31 -12 -82 l-2 -83 -7 75 c-4 41 -5 87 -3
101 4 20 -2 32 -27 52 -34 29 -81 33 -165 17z m-900 -230 c-28 -12 -37 -12
-30 0 3 6 16 10 28 9 21 0 21 -1 2 -9z m62 4 c-3 -3 -12 -4 -19 -1 -8 3 -5 6
6 6 11 1 17 -2 13 -5z m408 -74 c-38 -4 -90 -11 -115 -15 -25 -4 -42 -5 -38
-1 10 11 97 24 163 23 l60 0 -70 -7z m223 3 c-21 -2 -57 -2 -80 0 -24 2 -7 4
37 4 44 0 63 -2 43 -4z m262 -28 c36 -8 79 -16 95 -19 17 -2 8 -3 -20 -1 -27
1 -81 8 -120 15 -181 31 -175 29 -95 24 41 -3 104 -12 140 -19z m180 -42 c0
-45 -5 -40 -13 10 -3 22 -2 35 4 32 5 -4 9 -22 9 -42z m-1174 28 c-3 -4 16
-15 42 -24 l47 -15 -57 2 c-32 0 -58 2 -58 4 0 8 21 42 26 42 3 0 3 -4 0 -9z
m269 -6 c-22 -8 -49 -13 -60 -13 -11 0 0 6 25 13 59 17 87 17 35 0z m-88 -21
c-3 -3 -12 -4 -19 -1 -8 3 -5 6 6 6 11 1 17 -2 13 -5z m-44 -11 c-7 -2 -19 -2
-25 0 -7 3 -2 5 12 5 14 0 19 -2 13 -5z m-272 -74 c-9 -22 -10 -22 -10 -3 -1
11 2 24 6 27 12 12 14 0 4 -24z m6 -81 c-3 -8 -6 -5 -6 6 -1 11 2 17 5 13 3
-3 4 -12 1 -19z m1647 -160 c20 -24 36 -47 36 -53 -1 -5 -12 4 -26 20 -14 17
-34 40 -46 53 -11 12 -16 22 -10 22 5 0 26 -19 46 -42z m86 -109 c0 -6 -4 -7
-10 -4 -5 3 -10 11 -10 16 0 6 5 7 10 4 6 -3 10 -11 10 -16z m24 -35 c3 -8 2
-12 -4 -9 -6 3 -10 10 -10 16 0 14 7 11 14 -7z m-1594 -332 c0 -13 -40 -33
-52 -26 -7 5 -5 12 7 21 21 14 45 17 45 5z m23 -29 c-7 -2 -19 -2 -25 0 -7 3
-2 5 12 5 14 0 19 -2 13 -5z m75 -44 c51 -16 60 -26 31 -39 -23 -10 -22 -10 7
-7 24 2 31 0 27 -11 -4 -9 -15 -12 -32 -9 -32 7 -62 -7 -37 -16 35 -14 12 -22
-67 -24 -76 -1 -79 -1 -38 9 32 7 40 12 30 19 -8 5 -15 4 -17 -1 -2 -6 -10 -6
-22 0 -10 5 -32 11 -49 12 -30 2 -45 18 -17 18 8 0 16 10 18 23 2 12 8 22 15
22 7 0 17 5 24 12 13 13 73 10 127 -8z m-298 -29 c0 -5 -4 -10 -10 -10 -5 0
-10 5 -10 10 0 6 5 10 10 10 6 0 10 -4 10 -10z m-163 -42 c-3 -7 -5 -2 -5 12
0 14 2 19 5 13 2 -7 2 -19 0 -25z m167 7 c-10 -8 -25 -15 -31 -15 -7 0 -13 -4
-13 -10 0 -5 -7 -10 -15 -10 -21 0 -19 38 3 43 9 3 30 5 46 6 28 1 29 0 10
-14z m509 -35 c18 -22 22 -40 8 -40 -10 0 -26 19 -34 43 -9 23 5 22 26 -3z
m-29 -36 c5 -12 2 -15 -10 -10 -8 3 -18 6 -20 6 -3 0 -2 5 1 10 9 15 22 12 29
-6z m-74 -45 c0 -8 -61 -21 -68 -15 -2 3 -1 17 2 31 7 26 7 26 36 8 17 -9 30
-20 30 -24z m100 -43 c0 -3 -4 -8 -10 -11 -5 -3 -10 -1 -10 4 0 6 5 11 10 11
6 0 10 -2 10 -4z m-760 -162 c0 -8 -4 -12 -10 -9 -5 3 -10 10 -10 16 0 5 5 9
10 9 6 0 10 -7 10 -16z m1070 -444 c0 -5 -5 -10 -11 -10 -5 0 -7 5 -4 10 3 6
8 10 11 10 2 0 4 -4 4 -10z m-90 -46 c0 -8 -4 -12 -10 -9 -5 3 -10 10 -10 16
0 5 5 9 10 9 6 0 10 -7 10 -16z m-855 -84 c3 -5 2 -10 -4 -10 -5 0 -13 5 -16
10 -3 6 -2 10 4 10 5 0 13 -4 16 -10z m855 -67 c25 -1 79 -4 120 -6 59 -4 76
-8 78 -21 4 -19 14 -20 30 -4 9 9 12 8 12 -4 0 -20 -36 -28 -105 -24 -27 2
-54 0 -60 -4 -21 -14 -46 -20 -39 -9 5 8 -12 10 -60 5 -49 -4 -65 -3 -63 7 1
9 -22 12 -91 11 -68 -1 -90 2 -82 10 6 6 39 10 75 9 44 -1 64 2 62 9 -3 16 45
39 63 31 8 -4 35 -8 60 -10z m335 -45 c29 -13 34 -32 6 -23 -10 3 -35 6 -55 7
-36 1 -47 12 -23 21 21 9 45 7 72 -5z m-1135 -18 c0 -5 -5 -10 -11 -10 -5 0
-7 5 -4 10 3 6 8 10 11 10 2 0 4 -4 4 -10z m1200 -10 c0 -5 -2 -10 -4 -10 -3
0 -8 5 -11 10 -3 6 -1 10 4 10 6 0 11 -4 11 -10z m-1100 -47 c0 -28 -3 -33
-13 -24 -8 6 -17 8 -20 4 -11 -10 -8 11 5 39 16 34 28 26 28 -19z m707 41 c-3
-3 -12 -4 -19 -1 -8 3 -5 6 6 6 11 1 17 -2 13 -5z m209 -5 c3 -6 15 -8 27 -5
11 3 32 -1 46 -8 14 -7 31 -11 38 -9 17 6 35 -34 28 -58 -5 -16 -13 -20 -31
-16 -13 2 -24 1 -24 -3 0 -12 -36 -18 -51 -10 -7 5 -22 3 -33 -4 -12 -6 -34
-11 -51 -10 -16 1 -36 -3 -44 -9 -22 -18 -205 -12 -234 8 -14 9 -51 18 -84 20
-32 2 -68 7 -80 10 -25 8 -38 34 -23 49 7 7 10 4 11 -9 0 -15 3 -13 11 8 8 23
15 28 38 25 15 -1 35 4 45 12 15 12 21 12 46 -2 18 -11 31 -13 35 -7 3 6 36
10 72 9 91 -2 201 5 209 13 10 11 41 8 49 -4z m274 -79 c26 -26 49 -80 26 -61
-11 9 -15 8 -20 -4 -3 -10 0 -15 11 -15 29 0 3 -15 -45 -25 -43 -9 -46 -12
-50 -45 -2 -19 -10 -39 -18 -43 -22 -13 -17 -24 17 -36 38 -13 29 -33 -11 -24
-30 5 -43 -10 -17 -20 6 -3 2 -6 -10 -6 -12 -1 -30 10 -40 23 -21 27 -70 47
-59 25 4 -8 1 -7 -6 2 -7 9 -28 20 -46 23 -17 4 -32 13 -32 19 0 8 -3 8 -9 -1
-18 -30 -316 -33 -368 -4 -36 20 -27 30 20 25 36 -4 46 -1 66 21 14 14 32 26
40 26 14 0 14 2 2 9 -20 13 29 26 64 17 14 -4 25 -3 25 2 0 15 79 0 96 -19 20
-23 38 -25 30 -4 -7 20 14 19 43 -1 18 -13 28 -14 47 -5 14 6 34 11 44 11 11
0 20 7 20 16 0 8 4 13 9 10 9 -6 55 26 102 72 39 38 43 38 69 12z m58 -1 c3
-12 2 -12 -6 0 -6 8 -15 10 -22 6 -9 -5 -11 -4 -6 4 10 15 28 10 34 -10z
m-968 -15 c0 -4 -7 -4 -15 0 -8 3 -15 1 -15 -4 0 -6 5 -10 10 -10 6 0 10 -4
10 -10 0 -16 -47 -12 -54 5 -8 22 -7 30 3 30 5 0 13 3 16 7 8 7 45 -8 45 -18z
m3 -58 c6 -14 -1 -26 -14 -26 -4 0 -7 9 -6 20 1 23 12 26 20 6z m47 -36 c0 -5
-2 -10 -4 -10 -3 0 -8 5 -11 10 -3 6 -1 10 4 10 6 0 11 -4 11 -10z m-77 -17
c-7 -2 -21 -2 -30 0 -10 3 -4 5 12 5 17 0 24 -2 18 -5z m944 1 c-3 -3 -12 -4
-19 -1 -8 3 -5 6 6 6 11 1 17 -2 13 -5z m-787 -30 c0 -18 -4 -25 -14 -21 -9 4
-16 -3 -20 -16 -6 -21 -7 -21 -20 -4 -19 24 -10 56 14 50 10 -3 21 0 24 6 11
18 16 13 16 -15z m750 12 c0 -2 -7 -6 -15 -10 -8 -3 -15 -1 -15 4 0 6 7 10 15
10 8 0 15 -2 15 -4z m-840 -30 c0 -3 -4 -8 -10 -11 -5 -3 -10 -1 -10 4 0 6 5
11 10 11 6 0 10 -2 10 -4z m734 -137 c-31 -12 -39 -10 -19 5 11 8 24 12 29 8
5 -3 1 -9 -10 -13z m-47 -15 c-3 -3 -12 -4 -19 -1 -8 3 -5 6 6 6 11 1 17 -2
13 -5z m-11 -51 c-4 -4 -11 -1 -16 7 -16 25 -11 35 7 17 9 -9 13 -20 9 -24z
m-536 -7 c0 -3 -4 -8 -10 -11 -5 -3 -10 -1 -10 4 0 6 5 11 10 11 6 0 10 -2 10
-4z m600 -16 c0 -5 -7 -7 -15 -4 -8 4 -15 8 -15 10 0 2 7 4 15 4 8 0 15 -4 15
-10z m-122 -12 c16 -16 15 -29 -2 -22 -16 6 -30 34 -18 34 5 0 13 -5 20 -12z
m-152 -39 c19 -22 19 -22 -3 -8 -13 8 -23 17 -23 21 0 12 6 9 26 -13z m-45
-20 c16 -17 32 -44 36 -60 4 -23 10 -28 24 -24 14 5 22 -1 29 -21 6 -15 9 -32
7 -38 -3 -6 -10 2 -16 17 -10 26 -12 27 -27 13 -17 -18 -28 -21 -19 -7 3 5 1
12 -4 15 -5 3 -11 -4 -14 -16 -4 -12 -9 -20 -11 -17 -5 5 -14 54 -15 87 -1 10
-6 10 -22 2 -20 -11 -20 -11 -4 19 13 26 13 30 1 25 -26 -10 -41 7 -21 23 24
17 21 18 56 -18z m-19 -94 c-2 -14 -9 -25 -14 -25 -6 0 -7 7 -4 16 3 9 6 20 6
25 0 5 4 9 9 9 4 0 6 -11 3 -25z m-623 -520 c0 -5 -4 -3 -9 5 -5 8 -9 22 -9
30 0 16 17 -16 18 -35z"/>
<path d="M5 3820 c-3 -5 1 -10 9 -10 8 0 18 5 21 10 3 6 -1 10 -9 10 -8 0 -18
-4 -21 -10z"/>
<path d="M3045 3748 c-16 -5 -61 -11 -100 -12 -88 -2 -217 -32 -244 -56 -12
-9 -21 -24 -21 -33 0 -9 -15 -20 -36 -27 -45 -15 -52 -35 -24 -66 28 -28 48
-31 66 -6 13 16 13 16 14 -1 0 -13 5 -17 19 -12 11 3 22 2 25 -3 11 -18 -25
-50 -71 -62 -60 -17 -133 -58 -133 -75 0 -7 -3 -27 -6 -44 -7 -33 14 -46 22
-13 6 22 64 28 64 7 0 -8 9 -15 19 -15 20 0 38 -30 18 -30 -16 -1 -50 -48 -42
-60 3 -6 12 -10 19 -10 7 0 32 -9 55 -21 41 -19 56 -20 108 -3 15 5 15 4 3 -5
-12 -8 -12 -11 3 -17 12 -4 24 1 36 15 25 28 45 27 37 -2 -5 -23 -5 -23 97
-19 59 2 115 9 134 18 17 8 38 14 46 14 9 0 19 5 22 10 3 6 -1 10 -9 10 -9 0
-16 5 -16 10 0 6 5 10 11 10 5 0 8 4 5 9 -4 5 0 12 6 14 10 4 10 6 0 6 -7 1
-20 8 -29 16 -12 13 -13 18 -2 31 11 14 9 20 -14 40 -15 13 -27 28 -27 34 0 5
-7 10 -16 10 -25 0 3 30 30 31 11 1 1 7 -24 13 -25 7 -53 16 -62 20 -9 4 -22
5 -28 1 -6 -4 -18 1 -25 11 -8 11 -15 14 -15 9 0 -6 -24 -11 -56 -11 -32 0
-48 3 -37 7 12 5 3 8 -27 10 -29 1 -36 3 -20 6 14 3 27 9 30 13 5 8 57 14 100
11 18 -1 21 -4 11 -10 -19 -12 30 -22 129 -25 77 -3 128 -16 62 -16 -18 0 -32
-5 -32 -11 0 -6 18 -9 45 -8 25 2 44 -1 44 -5 -1 -9 21 -26 34 -26 5 0 5 5 2
10 -4 6 7 10 24 10 34 0 38 9 19 40 -10 16 -10 24 -1 40 11 17 8 25 -27 61
-22 23 -40 46 -40 50 0 4 -12 10 -26 13 -15 4 -24 9 -21 13 10 10 -29 43 -69
57 -21 8 -33 15 -26 15 6 1 12 6 12 11 0 12 -5 12 -45 -2z m-57 -332 c37 -35
41 -56 11 -63 -21 -6 -21 -7 -3 -21 18 -13 18 -14 -5 -7 -35 11 -135 23 -143
18 -9 -5 -40 11 -39 20 3 23 0 31 -7 20 -5 -8 -14 -6 -32 8 -25 19 -25 19 -5
32 69 43 173 40 223 -7z m-216 -151 c-4 -32 -6 -34 -31 -29 -14 4 -30 10 -34
14 -12 11 29 50 51 50 15 0 17 -6 14 -35z m-112 -15 c0 -5 -4 -10 -10 -10 -5
0 -10 5 -10 10 0 6 5 10 10 10 6 0 10 -4 10 -10z m335 0 c-3 -5 -13 -10 -21
-10 -8 0 -12 5 -9 10 3 6 13 10 21 10 8 0 12 -4 9 -10z m-249 -48 c-10 -2 -22
0 -28 6 -6 6 0 7 19 4 21 -5 23 -7 9 -10z m177 1 c-7 -2 -19 -2 -25 0 -7 3 -2
5 12 5 14 0 19 -2 13 -5z"/>
<path d="M2634 3199 c-3 -5 0 -9 6 -9 7 0 20 -10 29 -22 10 -11 26 -22 37 -23
10 -1 26 -5 34 -8 87 -35 152 -45 195 -28 13 5 -4 10 -53 14 -67 5 -95 15
-214 72 -16 8 -30 9 -34 4z"/>
<path d="M2968 3113 c7 -3 16 -2 19 1 4 3 -2 6 -13 5 -11 0 -14 -3 -6 -6z"/>
<path d="M2173 3103 c-7 -2 -13 -13 -13 -24 0 -17 3 -18 20 -9 11 6 20 17 20
25 0 15 -6 17 -27 8z"/>
<path d="M3533 3069 c-15 -15 -17 -65 -3 -74 11 -7 23 34 18 65 -2 17 -5 19
-15 9z"/>
<path d="M2131 3058 c1 -7 5 -24 9 -38 7 -22 8 -21 9 13 1 20 -3 37 -9 37 -5
0 -10 -6 -9 -12z"/>
<path d="M2240 2900 c0 -11 4 -20 9 -20 5 0 7 9 4 20 -3 11 -7 20 -9 20 -2 0
-4 -9 -4 -20z"/>
<path d="M2120 2869 c0 -5 5 -7 10 -4 6 3 10 8 10 11 0 2 -4 4 -10 4 -5 0 -10
-5 -10 -11z"/>
<path d="M2190 2870 c0 -5 4 -10 9 -10 6 0 13 5 16 10 3 6 -1 10 -9 10 -9 0
-16 -4 -16 -10z"/>
<path d="M1450 2790 c0 -5 5 -10 10 -10 6 0 10 5 10 10 0 6 -4 10 -10 10 -5 0
-10 -4 -10 -10z"/>
<path d="M2131 2784 c0 -11 3 -14 6 -6 3 7 2 16 -1 19 -3 4 -6 -2 -5 -13z"/>
<path d="M3256 2475 c4 -8 10 -15 15 -15 5 0 9 7 9 15 0 8 -7 15 -15 15 -9 0
-12 -6 -9 -15z"/>
<path d="M3190 2261 c0 -6 4 -13 10 -16 6 -3 7 1 4 9 -7 18 -14 21 -14 7z"/>
<path d="M1840 1368 c0 -32 0 -32 16 -10 15 22 12 42 -7 42 -5 0 -9 -15 -9
-32z"/>
<path d="M3377 1223 c-36 -4 -37 -5 -22 -25 11 -16 12 -25 3 -35 -6 -7 -9 -16
-6 -18 2 -3 24 16 48 40 24 25 38 44 30 43 -8 -1 -32 -3 -53 -5z"/>
<path d="M1487 1088 c-50 -86 -60 -171 -27 -242 22 -49 127 -151 208 -203 98
-63 203 -90 502 -129 161 -21 470 -20 590 2 145 26 232 46 315 72 77 24 211
86 264 122 14 9 73 48 131 86 104 68 290 235 290 260 0 7 -20 25 -43 39 -49
28 -57 30 -57 14 0 -32 -155 -193 -270 -280 -79 -60 -237 -139 -346 -174 -167
-53 -298 -70 -544 -69 -339 2 -588 43 -749 123 -119 59 -210 138 -251 219 -25
48 -23 108 6 163 24 48 9 46 -19 -3z"/>
<path d="M1812 1090 c0 -19 2 -27 5 -17 2 9 2 25 0 35 -3 9 -5 1 -5 -18z"/>
<path d="M1745 1040 c-3 -5 -1 -10 4 -10 6 0 11 5 11 10 0 6 -2 10 -4 10 -3 0
-8 -4 -11 -10z"/>
</g>
</svg>
